<svg xmlns="http://www.w3.org/2000/svg" width="150" height="35" fill="none"><path fill="#fff" d="M27.68 7.116c2.95-2.976 7.946-2.964 9.341 1.002q.41 1.166.652 2.39c.656 3.326.32 6.774-.967 9.907a17.1 17.1 0 0 1-6.261 7.695A16.9 16.9 0 0 1 21 31c-3.362 0-6.65-1.006-9.445-2.89a17.1 17.1 0 0 1-6.261-7.695 17.3 17.3 0 0 1-.315-12.297c1.395-3.966 6.392-3.978 9.342-1.002l4.554 4.594c.435.438.39 1.162.27 1.77-.073.37-.035.754.108 1.103.143.348.385.646.696.856a1.88 1.88 0 0 0 2.102 0 1.92 1.92 0 0 0 .804-1.958c-.12-.609-.165-1.333.27-1.771zM48 23.846h9.008v-2.565h-6.261V9.305H48zm14.42.303q1.636 0 2.878-.727a5.14 5.14 0 0 0 1.95-2.03q.706-1.303.706-3 0-1.685-.697-2.978a5.1 5.1 0 0 0-1.949-2.04q-1.242-.737-2.888-.737-1.616 0-2.857.727a5.14 5.14 0 0 0-1.95 2.03q-.706 1.292-.706 2.999 0 1.686.687 2.989a5.16 5.16 0 0 0 1.938 2.03q1.242.737 2.888.737m0-2.565q-1.282 0-1.949-.859-.656-.868-.656-2.332 0-1.425.626-2.303.636-.888 1.98-.888 1.302 0 1.958.868.667.869.667 2.323 0 1.403-.657 2.302-.646.89-1.969.889m10.966 2.565q.768 0 1.414-.182a4.5 4.5 0 0 0 1.192-.515v1.1q.02.607-.313 1.01a1.9 1.9 0 0 1-.869.616q-.545.212-1.161.212a2.3 2.3 0 0 1-1.07-.252 1.76 1.76 0 0 1-.748-.737l-2.544 1.232q.626 1.06 1.787 1.707a5.1 5.1 0 0 0 2.555.656 7.4 7.4 0 0 0 2.231-.323q1.03-.313 1.737-.96.717-.646.98-1.646.09-.353.121-.717a7 7 0 0 0 .04-.757V12.94h-2.403v.606a4.1 4.1 0 0 0-1.262-.667 4.7 4.7 0 0 0-1.545-.242q-1.566 0-2.727.747t-1.807 2.05q-.637 1.293-.637 2.959 0 1.636.627 2.938.636 1.303 1.767 2.06t2.635.758m.445-2.444q-.89 0-1.455-.444a2.6 2.6 0 0 1-.838-1.192 4.9 4.9 0 0 1-.272-1.676q0-.909.282-1.656.283-.758.869-1.202.596-.454 1.515-.454 1.292 0 1.848.918.555.909.555 2.394 0 1.484-.566 2.403-.555.909-1.938.909m11.431 2.444q1.635 0 2.878-.727a5.14 5.14 0 0 0 1.949-2.03q.707-1.303.707-3 0-1.685-.697-2.978a5.1 5.1 0 0 0-1.949-2.04q-1.242-.737-2.888-.737-1.616 0-2.858.727a5.14 5.14 0 0 0-1.949 2.03q-.706 1.292-.706 2.999 0 1.686.686 2.989a5.16 5.16 0 0 0 1.94 2.03q1.241.737 2.887.737m0-2.565q-1.283 0-1.949-.859-.656-.868-.656-2.332 0-1.425.626-2.303.636-.888 1.98-.888 1.302 0 1.958.868.667.869.667 2.323 0 1.403-.657 2.302-.645.89-1.969.889m6.745-10.16h2.746V9h-2.746zm0 12.42h2.746V12.938h-2.746zm4.542 4.849h2.766v-5.241q.536.333 1.182.515a5.3 5.3 0 0 0 1.424.182q1.505 0 2.636-.758 1.13-.757 1.757-2.06.636-1.302.636-2.938 0-1.666-.646-2.959-.636-1.303-1.798-2.05t-2.726-.747q-.849 0-1.555.242a4.1 4.1 0 0 0-1.252.667v-.606h-2.424zm4.928-6.988q-1.374 0-1.94-.909-.564-.92-.564-2.403 0-1.485.555-2.394.565-.918 1.848-.918.92 0 1.504.454.597.444.879 1.202.283.747.283 1.656 0 .918-.273 1.676-.273.747-.838 1.192t-1.454.444m10.449 2.444q2.14 0 3.353-.96 1.21-.96 1.211-2.635 0-1.272-.787-2.01-.778-.737-2.646-1.222a34 34 0 0 1-1.899-.525q-.615-.202-.818-.394a.64.64 0 0 1-.191-.474q0-.475.454-.727.465-.253 1.222-.202 1.605.12 1.757 1.373l2.807-.505q-.212-1.485-1.454-2.353-1.241-.878-3.171-.878-1.979 0-3.161.929-1.18.93-1.181 2.504 0 1.253.818 1.98.818.716 2.817 1.231 1.182.314 1.737.505.566.193.727.394.162.192.162.515a.94.94 0 0 1-.404.808q-.404.282-1.151.283-.91 0-1.505-.434-.585-.434-.757-1.202l-2.807.424q.272 1.707 1.535 2.646 1.272.929 3.332.929m9.631.018q1.182 0 2.061-.394a4.4 4.4 0 0 0 1.474-1.05v1.12h2.423V12.939h-2.766v5.533q0 1.01-.233 1.636-.22.616-.575.94a1.9 1.9 0 0 1-.758.424 3 3 0 0 1-.757.11q-.878 0-1.363-.393a2.24 2.24 0 0 1-.687-.98 4.3 4.3 0 0 1-.252-1.161q-.04-.585-.041-.96v-5.15h-2.787v6.12q0 .273.04.869t.233 1.322q.191.718.636 1.384.455.666 1.263 1.1t2.089.435m7.549-.324h2.767V17.24q0-.939.515-1.525.523-.595 1.383-.595.9 0 1.404.606.515.595.515 1.676v6.442h2.747V17.24q0-.939.515-1.525.525-.595 1.383-.595.899 0 1.403.606.516.595.516 1.676v6.442H145v-7.17q0-1.786-.959-2.887-.95-1.11-2.818-1.111-1.05 0-1.929.454a3.7 3.7 0 0 0-1.403 1.242 3.2 3.2 0 0 0-1.212-1.232q-.787-.465-1.959-.464-.99 0-1.817.394a3.76 3.76 0 0 0-1.374 1.06v-1.192h-2.423z" opacity=".4"/></svg>